<?xml version="1.0" encoding="iso-8859-1"?>
<!-- Generator: Adobe Illustrator 19.0.0, SVG Export Plug-In . SVG Version: 6.00 Build 0)  -->
<svg version="1.1" id="Capa_1" xmlns="http://www.w3.org/2000/svg" xmlns:xlink="http://www.w3.org/1999/xlink" x="0px" y="0px"
	 viewBox="0 0 480 480" style="enable-background:new 0 0 480 480;" xml:space="preserve">
<g>
	<g>
		<g>
			<path d="M280.573,0.019C280.383,0.006,280.193,0,280.002,0h-224c-4.418-0.011-8.008,3.563-8.019,7.981
				c0,0.191,0.006,0.381,0.019,0.571l32,464c0.291,4.201,3.789,7.458,8,7.448h160c4.211,0.01,7.709-3.247,8-7.448l32-464
				C288.307,4.144,284.981,0.324,280.573,0.019z M240.53,464H95.474l-0.552-8h146.16L240.53,464z M242.186,440H93.818l-3.864-56
				H246.05L242.186,440z M247.154,368H88.85L64.57,16h206.864L247.154,368z"/>
			<path d="M168.002,200c26.51,0,48-21.49,48-48c0-26.51-21.49-48-48-48c-26.51,0-48,21.49-48,48
				C120.029,178.499,141.503,199.974,168.002,200z M168.002,120c17.673,0,32,14.327,32,32s-14.327,32-32,32s-32-14.327-32-32
				S150.329,120,168.002,120z"/>
			<rect x="160.002" y="64" width="16" height="32"/>
			<rect x="101.089" y="93.101" transform="matrix(0.707 0.7072 -0.7072 0.707 105.7971 -53.1836)" width="32" height="16"/>
			<rect x="80.002" y="144" width="32" height="16"/>
			<rect x="101.094" y="194.914" transform="matrix(0.707 -0.7072 0.7072 0.707 -109.1909 142.2494)" width="32" height="16"/>
			<rect x="160.002" y="208" width="16" height="32"/>
			<rect x="202.915" y="194.913" transform="matrix(-0.707 -0.7072 0.7072 -0.707 230.2039 501.192)" width="32" height="16"/>
			<rect x="224.002" y="144" width="32" height="16"/>
			<rect x="210.913" y="85.085" transform="matrix(0.7071 0.7071 -0.7071 0.7071 135.5964 -125.1876)" width="16" height="32"/>
			<rect x="128.002" y="280" width="80" height="16"/>
			<rect x="112.002" y="312" width="112" height="16"/>
			<path d="M429.834,210.52c-1.513-1.609-3.624-2.521-5.832-2.52h-128c-4.418-0.008-8.007,3.566-8.015,7.985
				c0,0.171,0.005,0.341,0.015,0.511l16,256c0.262,4.224,3.768,7.512,8,7.504h96c4.232,0.008,7.738-3.281,8-7.504l16-256
				C432.136,214.29,431.351,212.127,429.834,210.52z M400.522,464h-81.008l-1.496-24h84L400.522,464z M402.986,424h-85.968
				l-12.504-200H415.49L402.986,424z"/>
			<path d="M384.002,312c0-13.255-10.745-24-24-24s-24,10.745-24,24s10.745,24,24,24S384.002,325.255,384.002,312z M352.002,312
				c0-4.418,3.582-8,8-8s8,3.582,8,8s-3.582,8-8,8S352.002,316.418,352.002,312z"/>
			<rect x="352.002" y="264" width="16" height="16"/>
			<rect x="323.72" y="275.709" transform="matrix(0.7071 0.7071 -0.7071 0.7071 297.7711 -151.4649)" width="16" height="16"/>
			<rect x="312.002" y="304" width="16" height="16"/>
			<rect x="323.725" y="332.283" transform="matrix(-0.7071 -0.7071 0.7071 -0.7071 325.6757 815.4639)" width="16" height="16"/>
			<rect x="352.002" y="344" width="16" height="16"/>
			<rect x="380.259" y="332.317" transform="matrix(-0.7071 -0.7071 0.7071 -0.7071 422.1596 855.4976)" width="16" height="16"/>
			<rect x="392.002" y="304" width="16" height="16"/>
			<rect x="380.254" y="275.743" transform="matrix(0.7071 0.7071 -0.7071 0.7071 314.3537 -191.4304)" width="16" height="16"/>
		</g>
	</g>
</g>
<g>
</g>
<g>
</g>
<g>
</g>
<g>
</g>
<g>
</g>
<g>
</g>
<g>
</g>
<g>
</g>
<g>
</g>
<g>
</g>
<g>
</g>
<g>
</g>
<g>
</g>
<g>
</g>
<g>
</g>
</svg>
