<?xml version="1.0" encoding="iso-8859-1"?>
<!-- Generator: Adobe Illustrator 19.0.0, SVG Export Plug-In . SVG Version: 6.00 Build 0)  -->
<svg version="1.1" id="Capa_1" xmlns="http://www.w3.org/2000/svg" xmlns:xlink="http://www.w3.org/1999/xlink" x="0px" y="0px"
	 viewBox="0 0 512 512" style="enable-background:new 0 0 512 512;" xml:space="preserve">
<g>
	<g>
		<path d="M497.231,54.154H169.307c-4.261-10.122-12.971-19.076-25.541-26.012c-15.632-8.623-36.091-13.373-57.612-13.373
			c-21.521,0-41.98,4.75-57.611,13.373C10.137,38.298,0,52.78,0,68.923v374.154c0,16.143,10.137,30.625,28.543,40.781
			c15.63,8.623,36.09,13.373,57.611,13.373h411.077c8.157,0,14.769-6.613,14.769-14.769V68.923
			C512,60.767,505.387,54.154,497.231,54.154z M86.154,467.692c-34.561,0-56.615-14.579-56.615-24.615
			c0-10.036,22.054-24.615,56.615-24.615c34.561,0,56.615,14.579,56.615,24.615C142.769,453.113,120.715,467.692,86.154,467.692z
			 M142.769,401.756c-0.334-0.178-0.682-0.346-1.02-0.52c-0.484-0.251-0.969-0.502-1.462-0.745
			c-0.516-0.255-1.041-0.501-1.566-0.748c-0.502-0.236-1.002-0.473-1.512-0.702c-0.533-0.239-1.075-0.47-1.617-0.701
			c-0.518-0.222-1.034-0.444-1.56-0.658c-0.55-0.224-1.11-0.438-1.669-0.655c-0.532-0.206-1.061-0.413-1.601-0.611
			c-0.566-0.208-1.141-0.406-1.715-0.606c-0.546-0.19-1.091-0.383-1.644-0.566c-0.582-0.192-1.174-0.374-1.763-0.558
			c-0.558-0.174-1.113-0.352-1.677-0.518c-0.6-0.177-1.207-0.343-1.814-0.511c-0.568-0.158-1.132-0.319-1.706-0.469
			c-0.614-0.16-1.238-0.309-1.859-0.462c-0.577-0.141-1.15-0.286-1.732-0.42c-0.632-0.145-1.273-0.278-1.911-0.414
			c-0.582-0.124-1.16-0.253-1.746-0.369c-0.65-0.129-1.308-0.244-1.963-0.364c-0.586-0.107-1.169-0.22-1.759-0.319
			c-0.668-0.112-1.343-0.211-2.016-0.313c-0.587-0.09-1.171-0.185-1.761-0.268c-0.692-0.096-1.391-0.177-2.088-0.264
			c-0.58-0.072-1.156-0.151-1.739-0.215c-0.72-0.08-1.446-0.143-2.17-0.212c-0.568-0.054-1.134-0.115-1.705-0.162
			c-0.768-0.063-1.542-0.109-2.315-0.16c-0.533-0.035-1.062-0.08-1.597-0.108c-0.88-0.048-1.766-0.078-2.652-0.11
			c-0.433-0.016-0.863-0.04-1.297-0.052c-1.321-0.032-2.649-0.051-3.98-0.051c-1.331,0-2.659,0.019-3.981,0.055
			c-0.434,0.012-0.865,0.037-1.297,0.052c-0.885,0.032-1.771,0.062-2.652,0.11c-0.535,0.03-1.064,0.073-1.597,0.108
			c-0.773,0.051-1.547,0.097-2.315,0.161c-0.571,0.047-1.136,0.109-1.705,0.162c-0.725,0.069-1.45,0.132-2.17,0.212
			c-0.583,0.064-1.159,0.144-1.739,0.215c-0.697,0.086-1.396,0.167-2.088,0.264c-0.591,0.082-1.175,0.178-1.761,0.268
			c-0.672,0.102-1.348,0.201-2.016,0.313c-0.59,0.099-1.172,0.212-1.758,0.318c-0.656,0.12-1.314,0.235-1.964,0.364
			c-0.586,0.116-1.163,0.245-1.744,0.368c-0.639,0.136-1.28,0.269-1.913,0.414c-0.582,0.133-1.155,0.279-1.732,0.42
			c-0.621,0.152-1.245,0.3-1.859,0.462c-0.573,0.15-1.138,0.311-1.706,0.469c-0.607,0.168-1.214,0.334-1.814,0.511
			c-0.564,0.166-1.12,0.344-1.677,0.518c-0.59,0.184-1.181,0.365-1.763,0.558c-0.553,0.183-1.098,0.375-1.644,0.566
			c-0.574,0.2-1.149,0.398-1.715,0.606c-0.54,0.198-1.069,0.406-1.601,0.611c-0.559,0.216-1.119,0.43-1.669,0.655
			c-0.526,0.214-1.042,0.436-1.56,0.658c-0.542,0.231-1.083,0.462-1.617,0.701c-0.51,0.228-1.01,0.466-1.512,0.702
			c-0.525,0.247-1.05,0.493-1.565,0.748c-0.493,0.244-0.978,0.494-1.462,0.745c-0.338,0.175-0.686,0.342-1.02,0.52V68.923h0.001
			c0-10.036,22.054-24.615,56.615-24.615c34.561,0,56.615,14.579,56.615,24.615V401.756z M418.46,467.692H163.474
			c0.082-0.104,0.158-0.211,0.237-0.316c0.195-0.254,0.387-0.509,0.575-0.766c0.144-0.195,0.287-0.391,0.426-0.588
			c0.185-0.261,0.366-0.523,0.545-0.785c0.133-0.195,0.266-0.389,0.394-0.585c0.178-0.27,0.35-0.542,0.521-0.814
			c0.12-0.191,0.242-0.382,0.358-0.574c0.175-0.288,0.343-0.58,0.51-0.87c0.102-0.178,0.209-0.355,0.308-0.534
			c0.189-0.34,0.368-0.682,0.547-1.025c0.069-0.132,0.142-0.263,0.21-0.396c0.241-0.477,0.474-0.956,0.695-1.439
			c0.046-0.101,0.088-0.204,0.133-0.305c0.171-0.382,0.34-0.764,0.498-1.149c0.074-0.179,0.141-0.359,0.212-0.54
			c0.122-0.31,0.244-0.62,0.358-0.933c0.074-0.202,0.142-0.406,0.212-0.609c0.101-0.293,0.202-0.586,0.296-0.88
			c0.068-0.213,0.131-0.426,0.195-0.639c0.087-0.289,0.171-0.578,0.251-0.868c0.06-0.218,0.116-0.436,0.172-0.655
			c0.074-0.289,0.144-0.577,0.211-0.866c0.051-0.222,0.1-0.443,0.148-0.666c0.062-0.291,0.119-0.585,0.173-0.878
			c0.041-0.221,0.082-0.442,0.119-0.664c0.05-0.299,0.095-0.6,0.138-0.9c0.031-0.218,0.064-0.434,0.091-0.652
			c0.039-0.315,0.072-0.63,0.102-0.946c0.021-0.205,0.044-0.41,0.061-0.615c0.029-0.351,0.049-0.703,0.069-1.056
			c0.01-0.173,0.024-0.345,0.031-0.518c0.022-0.527,0.034-1.055,0.034-1.585V83.692H418.46V467.692z M482.462,467.692H448v-384
			h34.462V467.692z"/>
	</g>
</g>
<g>
</g>
<g>
</g>
<g>
</g>
<g>
</g>
<g>
</g>
<g>
</g>
<g>
</g>
<g>
</g>
<g>
</g>
<g>
</g>
<g>
</g>
<g>
</g>
<g>
</g>
<g>
</g>
<g>
</g>
</svg>
