<svg version="1.1" id="Capa_1" xmlns="http://www.w3.org/2000/svg" xmlns:xlink="http://www.w3.org/1999/xlink" x="0px" y="0px"
	 viewBox="0 0 512 512" style="enable-background:new 0 0 512 512;" xml:space="preserve">
<g>
	<g>
		<path d="M256,88.75h-32v14.5c13.509,0,24.5,10.991,24.5,24.5c0,13.509-10.991,24.5-24.5,24.5v15.5h32
			c21.78,0,39.5-17.72,39.5-39.5C295.5,106.47,277.78,88.75,256,88.75z M256,152.75h-1.051c5.346-7,8.551-15.25,8.551-24.5
			s-3.205-18.5-8.551-24.5H256c13.509,0,24.5,10.991,24.5,24.5C280.5,141.759,269.509,152.75,256,152.75z"/>
	</g>
</g>
<g>
	<g>
		<path d="M160,120.25c-14.809,0-27.733,8.196-34.495,20.286c-3.824-2.696-8.481-4.286-13.505-4.286
			c-12.958,0-23.5,10.542-23.5,23.5h15c0-4.687,3.813-8.5,8.5-8.5s8.5,3.813,8.5,8.5h15c0-13.509,10.991-24.5,24.5-24.5
			c13.509,0,24.5,10.991,24.5,24.5h15C199.5,137.97,181.78,120.25,160,120.25z"/>
	</g>
</g>
<g>
	<g>
		<path d="M384,72.25c-14.809,0-27.733,8.196-34.495,20.286c-3.824-2.696-8.481-4.286-13.505-4.286c-12.958,0-23.5,10.542-23.5,23.5
			h15c0-4.687,3.813-8.5,8.5-8.5s8.5,3.813,8.5,8.5h15c0-13.509,10.991-24.5,24.5-24.5c13.509,0,24.5,10.991,24.5,24.5h15
			C423.5,89.97,405.78,72.25,384,72.25z"/>
	</g>
</g>
<g>
	<g>
		<path d="M487,424.75v-27.439L355.819,216.75H156.181L24,397.311v27.439H0v15h512v-15H487z M141.997,261.755L106.271,392.75H46.728
			L141.997,261.755z M152,424.75H39v-17h113V424.75z M152,392.75h-30.181L152,279.755V392.75z M280,424.75H167v-17h41v-15h-41
			V246.814L273.272,392.75H240v15h40V424.75z M174.728,231.75h173.453l117.091,161H291.819L174.728,231.75z M472,424.75H295v-17h177
			V424.75z"/>
	</g>
</g>
<g>
	<g>
		<rect x="272" y="248.75" width="16" height="15"/>
	</g>
</g>
<g>
	<g>
		<rect x="224" y="248.75" width="16" height="15"/>
	</g>
</g>
<g>
	<g>
		<rect x="320" y="248.75" width="16" height="15"/>
	</g>
</g>
<g>
</g>
<g>
</g>
<g>
</g>
<g>
</g>
<g>
</g>
<g>
</g>
<g>
</g>
<g>
</g>
<g>
</g>
<g>
</g>
<g>
</g>
<g>
</g>
<g>
</g>
<g>
</g>
<g>
</g>
</svg>